<mxfile host="65bd71144e">
    <diagram id="qVMIQvpNEr4zn9dD0inA" name="Page-1">
        <mxGraphModel dx="893" dy="633" grid="1" gridSize="10" guides="1" tooltips="1" connect="1" arrows="1" fold="1" page="1" pageScale="1" pageWidth="850" pageHeight="1100" math="0" shadow="0">
            <root>
                <mxCell id="0"/>
                <mxCell id="1" parent="0"/>
                <mxCell id="2" value="" style="rounded=0;whiteSpace=wrap;html=1;fillColor=#a20025;fontColor=#ffffff;strokeColor=#6F0000;" parent="1" vertex="1">
                    <mxGeometry width="850" height="110" as="geometry"/>
                </mxCell>
                <mxCell id="3" value="&lt;span style=&quot;font-size: 26px;&quot;&gt;Movie - Giphy&lt;/span&gt;" style="rounded=0;whiteSpace=wrap;html=1;" parent="1" vertex="1">
                    <mxGeometry x="170" y="25" width="490" height="60" as="geometry"/>
                </mxCell>
                <mxCell id="4" value="Body" style="rounded=0;whiteSpace=wrap;html=1;verticalAlign=top;align=left;" parent="1" vertex="1">
                    <mxGeometry x="120" y="130" width="600" height="590" as="geometry"/>
                </mxCell>
                <mxCell id="5" value="Search Bar" style="rounded=0;whiteSpace=wrap;html=1;fillColor=#1ba1e2;fontColor=#ffffff;strokeColor=#006EAF;fontStyle=1" parent="1" vertex="1">
                    <mxGeometry x="285" y="170" width="260" height="30" as="geometry"/>
                </mxCell>
                <mxCell id="6" value="Movie Content" style="rounded=0;whiteSpace=wrap;html=1;align=left;verticalAlign=top;" parent="1" vertex="1">
                    <mxGeometry x="160" y="225" width="520" height="340" as="geometry"/>
                </mxCell>
                <mxCell id="7" value="" style="rounded=0;whiteSpace=wrap;html=1;fillColor=#f8cecc;strokeColor=#b85450;gradientColor=#ea6b66;" parent="1" vertex="1">
                    <mxGeometry x="180" y="255" width="250" height="290" as="geometry"/>
                </mxCell>
                <mxCell id="8" value="Giphy Image (9 or so!)" style="rounded=0;whiteSpace=wrap;html=1;fillColor=#a20025;fontColor=#ffffff;strokeColor=#6F0000;" parent="1" vertex="1">
                    <mxGeometry x="460" y="255" width="200" height="290" as="geometry"/>
                </mxCell>
                <mxCell id="9" value="Movie Title" style="rounded=0;whiteSpace=wrap;html=1;fillColor=#1ba1e2;fontColor=#ffffff;strokeColor=#006EAF;fontStyle=1" parent="1" vertex="1">
                    <mxGeometry x="195" y="265" width="220" height="30" as="geometry"/>
                </mxCell>
                <mxCell id="10" value="Movie Summary" style="rounded=0;whiteSpace=wrap;html=1;fillColor=#1ba1e2;fontColor=#ffffff;strokeColor=#006EAF;" parent="1" vertex="1">
                    <mxGeometry x="190" y="315" width="230" height="210" as="geometry"/>
                </mxCell>
                <mxCell id="11" value="&lt;font style=&quot;font-size: 14px;&quot;&gt;Search History - These will be rendered with javascript&lt;/font&gt;" style="rounded=0;whiteSpace=wrap;html=1;fontSize=26;align=left;verticalAlign=top;" parent="1" vertex="1">
                    <mxGeometry x="160" y="580" width="520" height="110" as="geometry"/>
                </mxCell>
                <mxCell id="12" value="&lt;font style=&quot;font-size: 13px;&quot;&gt;Search History&lt;/font&gt;" style="rounded=0;whiteSpace=wrap;html=1;fontSize=26;fillColor=#1ba1e2;fontColor=#ffffff;strokeColor=#006EAF;verticalAlign=bottom;" parent="1" vertex="1">
                    <mxGeometry x="170" y="621" width="115" height="20" as="geometry"/>
                </mxCell>
                <mxCell id="13" value="&lt;font style=&quot;font-size: 13px;&quot;&gt;Search History&lt;/font&gt;" style="rounded=0;whiteSpace=wrap;html=1;fontSize=26;fillColor=#1ba1e2;fontColor=#ffffff;strokeColor=#006EAF;verticalAlign=bottom;" parent="1" vertex="1">
                    <mxGeometry x="290" y="621" width="115" height="20" as="geometry"/>
                </mxCell>
                <mxCell id="14" value="&lt;font style=&quot;font-size: 13px;&quot;&gt;Search History&lt;/font&gt;" style="rounded=0;whiteSpace=wrap;html=1;fontSize=26;fillColor=#1ba1e2;fontColor=#ffffff;strokeColor=#006EAF;verticalAlign=bottom;" parent="1" vertex="1">
                    <mxGeometry x="415" y="621" width="115" height="20" as="geometry"/>
                </mxCell>
                <mxCell id="15" value="&lt;font style=&quot;font-size: 13px;&quot;&gt;Search History&lt;/font&gt;" style="rounded=0;whiteSpace=wrap;html=1;fontSize=26;fillColor=#1ba1e2;fontColor=#ffffff;strokeColor=#006EAF;verticalAlign=bottom;" parent="1" vertex="1">
                    <mxGeometry x="540" y="621" width="115" height="20" as="geometry"/>
                </mxCell>
                <mxCell id="16" value="&lt;font style=&quot;font-size: 13px;&quot;&gt;Search History&lt;/font&gt;" style="rounded=0;whiteSpace=wrap;html=1;fontSize=26;fillColor=#1ba1e2;fontColor=#ffffff;strokeColor=#006EAF;verticalAlign=bottom;" parent="1" vertex="1">
                    <mxGeometry x="170" y="651" width="115" height="20" as="geometry"/>
                </mxCell>
                <mxCell id="17" value="&lt;font style=&quot;font-size: 13px;&quot;&gt;Search History&lt;/font&gt;" style="rounded=0;whiteSpace=wrap;html=1;fontSize=26;fillColor=#1ba1e2;fontColor=#ffffff;strokeColor=#006EAF;verticalAlign=bottom;" parent="1" vertex="1">
                    <mxGeometry x="290" y="651" width="115" height="20" as="geometry"/>
                </mxCell>
                <mxCell id="18" value="&lt;font style=&quot;font-size: 13px;&quot;&gt;Search History&lt;/font&gt;" style="rounded=0;whiteSpace=wrap;html=1;fontSize=26;fillColor=#1ba1e2;fontColor=#ffffff;strokeColor=#006EAF;verticalAlign=bottom;" parent="1" vertex="1">
                    <mxGeometry x="415" y="651" width="115" height="20" as="geometry"/>
                </mxCell>
                <mxCell id="19" value="&lt;font style=&quot;font-size: 13px;&quot;&gt;Search History&lt;/font&gt;" style="rounded=0;whiteSpace=wrap;html=1;fontSize=26;fillColor=#1ba1e2;fontColor=#ffffff;strokeColor=#006EAF;verticalAlign=bottom;" parent="1" vertex="1">
                    <mxGeometry x="540" y="651" width="115" height="20" as="geometry"/>
                </mxCell>
                <mxCell id="21" value="&lt;font style=&quot;font-size: 13px;&quot;&gt;RESET Button&lt;/font&gt;" style="rounded=0;whiteSpace=wrap;html=1;fontSize=26;fillColor=#60a917;fontColor=#ffffff;strokeColor=#2D7600;verticalAlign=middle;" parent="1" vertex="1">
                    <mxGeometry x="520" y="590" width="115" height="20" as="geometry"/>
                </mxCell>
                <mxCell id="22" value="" style="whiteSpace=wrap;html=1;aspect=fixed;fillColor=#60a917;fontColor=#ffffff;strokeColor=#2D7600;" vertex="1" parent="1">
                    <mxGeometry x="570" y="290" width="80" height="80" as="geometry"/>
                </mxCell>
                <mxCell id="23" value="" style="whiteSpace=wrap;html=1;aspect=fixed;fillColor=#60a917;fontColor=#ffffff;strokeColor=#2D7600;" vertex="1" parent="1">
                    <mxGeometry x="477" y="290" width="80" height="80" as="geometry"/>
                </mxCell>
                <mxCell id="24" value="" style="whiteSpace=wrap;html=1;aspect=fixed;fillColor=#60a917;fontColor=#ffffff;strokeColor=#2D7600;" vertex="1" parent="1">
                    <mxGeometry x="570" y="420" width="80" height="80" as="geometry"/>
                </mxCell>
                <mxCell id="25" value="" style="whiteSpace=wrap;html=1;aspect=fixed;fillColor=#60a917;fontColor=#ffffff;strokeColor=#2D7600;" vertex="1" parent="1">
                    <mxGeometry x="477" y="420" width="80" height="80" as="geometry"/>
                </mxCell>
            </root>
        </mxGraphModel>
    </diagram>
</mxfile>